<svg xmlns="http://www.w3.org/2000/svg" viewBox="0 0 1200 800" width="1200" height="800" role="img" aria-label="Planeta Terra visto do espaco com satelites em orbita">
  <defs>
    <radialGradient id="space" cx="70%" cy="30%" r="90%">
      <stop offset="0%" stop-color="#1b2a55"/>
      <stop offset="45%" stop-color="#0a1230"/>
      <stop offset="100%" stop-color="#04060f"/>
    </radialGradient>
    <radialGradient id="planet" cx="40%" cy="35%" r="70%">
      <stop offset="0%" stop-color="#4da3ff"/>
      <stop offset="55%" stop-color="#1f5fd6"/>
      <stop offset="100%" stop-color="#0a2a6b"/>
    </radialGradient>
    <radialGradient id="glow" cx="50%" cy="50%" r="50%">
      <stop offset="0%" stop-color="#5fa8ff" stop-opacity="0.55"/>
      <stop offset="100%" stop-color="#5fa8ff" stop-opacity="0"/>
    </radialGradient>
    <linearGradient id="ring" x1="0" y1="0" x2="1" y2="1">
      <stop offset="0%" stop-color="#7cc4ff"/>
      <stop offset="100%" stop-color="#9b6bff"/>
    </linearGradient>
  </defs>
  <rect width="1200" height="800" fill="url(#space)"/>
  <g fill="#ffffff">
    <circle cx="120" cy="110" r="1.6" opacity="0.9"/><circle cx="300" cy="60" r="1.1" opacity="0.7"/>
    <circle cx="520" cy="140" r="1.4" opacity="0.8"/><circle cx="760" cy="80" r="1" opacity="0.6"/>
    <circle cx="980" cy="180" r="1.7" opacity="0.9"/><circle cx="1100" cy="90" r="1.2" opacity="0.7"/>
    <circle cx="200" cy="320" r="1.2" opacity="0.7"/><circle cx="90" cy="520" r="1.5" opacity="0.8"/>
    <circle cx="430" cy="700" r="1.1" opacity="0.6"/><circle cx="680" cy="640" r="1.4" opacity="0.8"/>
    <circle cx="1040" cy="560" r="1.2" opacity="0.7"/><circle cx="1150" cy="430" r="1.6" opacity="0.9"/>
    <circle cx="350" cy="240" r="0.9" opacity="0.5"/><circle cx="860" cy="320" r="1" opacity="0.6"/>
    <circle cx="610" cy="40" r="1.3" opacity="0.8"/><circle cx="60" cy="260" r="1" opacity="0.6"/>
  </g>
  <circle cx="880" cy="560" r="360" fill="url(#glow)"/>
  <circle cx="880" cy="560" r="240" fill="url(#planet)"/>
  <ellipse cx="820" cy="500" rx="70" ry="40" fill="#6fb6ff" opacity="0.35"/>
  <ellipse cx="930" cy="600" rx="90" ry="46" fill="#0a2a6b" opacity="0.45"/>
  <ellipse cx="900" cy="520" rx="40" ry="22" fill="#bfe0ff" opacity="0.3"/>
  <g fill="none" stroke="url(#ring)" stroke-width="2.5" opacity="0.85">
    <ellipse cx="880" cy="560" rx="330" ry="120" transform="rotate(-22 880 560)"/>
    <ellipse cx="880" cy="560" rx="300" ry="170" transform="rotate(28 880 560)"/>
  </g>
  <g transform="rotate(-22 880 560)">
    <g transform="translate(1210 560)">
      <rect x="-16" y="-9" width="32" height="18" rx="3" fill="#cfe6ff"/>
      <rect x="-44" y="-5" width="22" height="10" rx="2" fill="#7cc4ff"/>
      <rect x="22" y="-5" width="22" height="10" rx="2" fill="#7cc4ff"/>
    </g>
  </g>
  <g transform="rotate(28 880 560)">
    <g transform="translate(580 560)">
      <rect x="-13" y="-7" width="26" height="14" rx="3" fill="#e7d8ff"/>
      <rect x="-36" y="-4" width="18" height="8" rx="2" fill="#9b6bff"/>
      <rect x="18" y="-4" width="18" height="8" rx="2" fill="#9b6bff"/>
    </g>
  </g>
</svg>
