<svg xmlns="http://www.w3.org/2000/svg" viewBox="0 0 1200 600" width="1200" height="600" role="img" aria-label="Edge Computing processando dados na borda">
  <defs>
    <linearGradient id="s3bg" x1="0" y1="0" x2="1" y2="1">
      <stop offset="0%" stop-color="#0a0a2e"/><stop offset="100%" stop-color="#241046"/>
    </linearGradient>
    <linearGradient id="node" x1="0" y1="0" x2="0" y2="1">
      <stop offset="0%" stop-color="#9b6bff"/><stop offset="100%" stop-color="#5a2fb0"/>
    </linearGradient>
  </defs>
  <rect width="1200" height="600" fill="url(#s3bg)"/>
  <g fill="#fff" opacity="0.7">
    <circle cx="180" cy="90" r="1.3"/><circle cx="520" cy="60" r="1"/><circle cx="900" cy="110" r="1.4"/><circle cx="1080" cy="240" r="1.2"/>
  </g>
  <g stroke="#7cc4ff" stroke-width="2" opacity="0.55">
    <line x1="600" y1="300" x2="300" y2="170"/><line x1="600" y1="300" x2="900" y2="170"/>
    <line x1="600" y1="300" x2="300" y2="430"/><line x1="600" y1="300" x2="900" y2="430"/>
    <line x1="600" y1="300" x2="220" y2="300"/><line x1="600" y1="300" x2="980" y2="300"/>
  </g>
  <g>
    <rect x="540" y="248" width="120" height="104" rx="14" fill="url(#node)"/>
    <rect x="560" y="270" width="80" height="12" rx="4" fill="#dcd0ff"/>
    <rect x="560" y="292" width="60" height="10" rx="4" fill="#bca6ff"/>
    <rect x="560" y="312" width="70" height="10" rx="4" fill="#bca6ff"/>
  </g>
  <g fill="#7cc4ff">
    <circle cx="300" cy="170" r="16"/><circle cx="900" cy="170" r="16"/>
    <circle cx="300" cy="430" r="16"/><circle cx="900" cy="430" r="16"/>
    <circle cx="220" cy="300" r="14"/><circle cx="980" cy="300" r="14"/>
  </g>
  <text x="60" y="545" fill="#d7c9ff" font-family="Segoe UI, Arial, sans-serif" font-size="30" font-weight="700">Edge Computing</text>
</svg>
