<svg xmlns="http://www.w3.org/2000/svg" viewBox="0 0 1200 600" width="1200" height="600" role="img" aria-label="Satelite de comunicacao em orbita">
  <defs>
    <linearGradient id="s1bg" x1="0" y1="0" x2="1" y2="1">
      <stop offset="0%" stop-color="#0a1230"/><stop offset="100%" stop-color="#06203f"/>
    </linearGradient>
    <linearGradient id="panel" x1="0" y1="0" x2="0" y2="1">
      <stop offset="0%" stop-color="#2a6fd6"/><stop offset="100%" stop-color="#123a82"/>
    </linearGradient>
  </defs>
  <rect width="1200" height="600" fill="url(#s1bg)"/>
  <g fill="#fff" opacity="0.8">
    <circle cx="150" cy="90" r="1.5"/><circle cx="420" cy="150" r="1"/><circle cx="700" cy="70" r="1.4"/>
    <circle cx="980" cy="120" r="1.2"/><circle cx="1100" cy="300" r="1.5"/><circle cx="250" cy="420" r="1.1"/>
    <circle cx="900" cy="470" r="1.3"/><circle cx="560" cy="520" r="1"/>
  </g>
  <g transform="translate(600 300)">
    <rect x="-55" y="-45" width="110" height="90" rx="10" fill="#cfe6ff"/>
    <rect x="-40" y="-30" width="80" height="60" rx="6" fill="#1f5fd6"/>
    <rect x="-230" y="-28" width="150" height="56" rx="6" fill="url(#panel)"/>
    <rect x="80" y="-28" width="150" height="56" rx="6" fill="url(#panel)"/>
    <line x1="-80" y1="0" x2="-55" y2="0" stroke="#9fc4ff" stroke-width="6"/>
    <line x1="55" y1="0" x2="80" y2="0" stroke="#9fc4ff" stroke-width="6"/>
    <circle cx="0" cy="-70" r="10" fill="#7cc4ff"/>
    <line x1="0" y1="-60" x2="0" y2="-45" stroke="#7cc4ff" stroke-width="4"/>
  </g>
  <g fill="none" stroke="#7cc4ff" stroke-width="2" opacity="0.6">
    <path d="M600 230 q-120 -90 -260 -60"/>
    <path d="M600 230 q120 -90 260 -60"/>
  </g>
  <text x="60" y="540" fill="#bcd6ff" font-family="Segoe UI, Arial, sans-serif" font-size="30" font-weight="700">Comunicacao via Satelite</text>
</svg>
